<svg width="63" height="72" viewBox="0 0 63 72" fill="none" xmlns="http://www.w3.org/2000/svg">
<path d="M41.3611 70.1338C38.4614 69.0081 35.9306 67.3929 33.8148 65.1732C31.1543 62.3819 29.336 59.0841 28.422 55.3494C27.974 53.5189 27.85 51.6061 27.6212 49.7252C27.3816 47.755 27.1793 45.7799 26.9854 43.8045C26.8726 42.6562 26.8233 41.5018 26.7187 40.3527C26.565 38.6659 26.3816 36.9818 26.2222 35.2956C26.1235 34.252 26.0587 33.2052 25.9561 32.1621C25.8006 30.5814 25.6229 29.0031 25.4603 27.4232C25.4066 26.9019 25.3678 26.3784 25.3266 25.8559C25.2361 24.7051 25.1484 23.554 25.0498 22.2764C23.9654 22.3447 22.8844 22.4014 21.8055 22.4852C21.2039 22.5319 20.6063 22.6276 20.0061 22.6939C18.0587 22.909 16.1129 23.1421 14.1627 23.3289C11.1352 23.619 8.24639 24.4158 5.60565 25.913C4.2243 26.6961 2.98235 27.736 1.71873 28.7135C1.17315 29.1355 0.73205 29.6931 0.114113 30.3206C-0.0231684 28.5547 -0.0493316 26.9639 0.106325 25.3539C0.25966 23.7679 0.594695 22.2385 1.14964 20.7548C2.39407 17.4277 4.55155 14.8566 7.58444 13.0217C9.93186 11.6014 12.4723 10.6796 15.166 10.2269C16.5214 9.99908 17.9076 9.95799 19.2781 9.81569C20.7916 9.65858 22.3022 9.4737 23.8158 9.31731C24.8141 9.21419 25.8156 9.14362 26.8151 9.0521C28.6246 8.88644 30.4331 8.71026 32.2432 8.54964C33.3481 8.45156 34.4565 8.39119 35.5605 8.28378C37.1171 8.13235 38.6696 7.9433 40.2258 7.78903C41.2876 7.68374 42.3517 7.59065 43.417 7.52614C47.6469 7.26988 51.7842 6.60051 55.6792 4.82313C58.0393 3.74621 60.25 2.44379 62.1009 0.587668C62.3178 0.369897 62.615 0.232291 62.9606 0C63.0204 3.21651 63.1503 6.26209 62.1061 9.21602C60.8436 12.7878 58.6041 15.5218 55.3686 17.4733C53.2268 18.7652 50.8863 19.4952 48.4695 19.9963C47.5344 20.1903 46.5587 20.1875 45.6016 20.2749C44.2079 20.4023 42.8135 20.5247 41.4206 20.6626C41.1248 20.6919 40.9308 20.833 40.969 21.1985C41.1054 22.5098 41.2231 23.823 41.3452 25.1357C41.4345 26.095 41.5146 27.0552 41.608 28.0142C41.772 29.7004 41.9513 31.3848 42.1077 33.0718C42.2103 34.1787 42.2714 35.2898 42.3737 36.3967C42.5299 38.0837 42.7103 39.7681 42.8717 41.4543C42.9677 42.4556 43.0382 43.4593 43.1359 44.4603C43.2961 46.1045 43.4774 47.7466 43.6345 49.391C43.7362 50.4555 43.7545 51.5311 43.9095 52.5869C44.1596 54.2896 44.4077 56.0004 44.8076 57.6718C45.4923 60.5349 46.8447 63.0995 48.6676 65.3987C50.166 67.2886 52.0025 68.8186 54.0275 70.114C54.7062 70.5479 55.4386 70.8971 56.1436 71.2898C56.3162 71.3861 56.4781 71.5017 56.6184 71.7115C51.4239 72.3332 46.3399 72.0127 41.3611 70.1338Z" fill="white"/>
</svg>
