<svg width="83" height="83" viewBox="0 0 83 83" fill="none" xmlns="http://www.w3.org/2000/svg">
<path d="M49.6068 0.0873083C47.5553 0.216858 45.5605 0.766079 43.7168 1.82998C38.8003 4.66699 36.4703 10.2632 36.2597 16.2172C36.0491 22.1713 37.8039 28.8008 41.4405 35.0962C45.0771 41.3916 49.9554 46.2495 55.2198 49.0443C60.4841 51.8391 66.4872 52.5973 71.4037 49.7603C76.3203 46.9232 78.6434 41.3609 78.854 35.4069C79.0646 29.4528 77.3166 22.7895 73.68 16.4941C70.0434 10.1987 65.1584 5.37458 59.894 2.57974C56.6037 0.833029 53.0258 -0.128581 49.6068 0.0873083ZM56.1924 16.4063C56.8976 16.4583 57.5823 16.5754 58.2458 16.7576C60.8997 17.4863 63.1545 19.1933 64.4262 21.4317C66.9698 25.9085 65.7678 32.6365 60.056 35.954C59.2639 36.4131 58.3221 36.5394 57.437 36.3051C56.552 36.0709 55.7959 35.4952 55.3346 34.7044C54.8755 33.9123 54.7493 32.9705 54.9835 32.0854C55.2178 31.2003 55.7934 30.4443 56.5842 29.983C59.5446 28.2635 59.3068 26.3957 58.4282 24.8495C57.5497 23.3032 56.1899 22.182 53.1124 23.9579C52.7185 24.1841 52.284 24.3305 51.8336 24.3888C51.3832 24.4471 50.9257 24.416 50.4872 24.2975C50.0488 24.179 49.638 23.9752 49.2783 23.6979C48.9186 23.4206 48.6171 23.0752 48.3909 22.6813C47.9318 21.8892 47.8055 20.9474 48.0398 20.0623C48.274 19.1772 48.8497 18.4212 49.6405 17.9599C51.808 16.7091 54.0769 16.2504 56.1924 16.4063Z" fill="white"/>
<path d="M32.1192 15.1027L16.2528 34.7314C15.3536 35.8446 15.2328 37.3966 15.9488 38.6356L25.6483 55.4071C26.3613 56.6414 27.7585 57.3118 29.1674 57.0958L54.112 53.1849C48.076 49.7971 42.4984 44.1634 38.3064 36.9064C34.1125 29.6464 32.034 22.0219 32.1192 15.1027Z" fill="white"/>
<path d="M18.0384 33.4792C17.5427 33.5296 17.0638 33.6865 16.6344 33.9393L12.3199 36.4155C4.16332 41.1223 2.33575 49.8252 5.7845 55.69C9.23324 61.5547 17.6625 64.2688 25.7227 59.647C25.7314 59.6471 25.7401 59.6471 25.7488 59.647L30.0632 57.1451C30.8546 56.684 31.4307 55.9277 31.6652 55.0423C31.8998 54.1569 31.7735 53.2147 31.3141 52.4222L21.3579 35.1901C21.0263 34.6174 20.5374 34.1518 19.9491 33.8486C19.3609 33.5454 18.6973 33.4169 18.0384 33.4792Z" fill="white"/>
<path d="M34.8413 57.9266C34.4621 58.6193 33.9018 59.196 33.2202 59.5949L27.7828 62.7493H27.7423C22.9184 65.5153 18.0111 66.1419 13.6996 65.3025L20.7446 77.5215C20.7623 77.5465 20.7802 77.5713 20.7986 77.5958C23.5722 82.079 29.9483 84.7197 35.7059 81.554C35.733 81.5453 35.7599 81.5363 35.7868 81.527C41.0114 78.5121 42.8095 71.7418 39.7923 66.5184L34.8413 57.9266Z" fill="white"/>
</svg>
