<svg width="1418" height="523" viewBox="0 0 1418 523" fill="none" xmlns="http://www.w3.org/2000/svg">
<path d="M141.467 3.33327C142.133 5.99994 141.467 5.99994 111.067 6.26661C88.3999 6.39994 79.7332 5.99994 79.0666 4.93327C78.2666 3.73327 77.9999 3.73327 77.9999 4.93327C77.9999 5.86661 77.1999 6.66661 76.1332 6.66661C75.0666 6.66661 73.8666 5.86661 73.5999 4.93327C73.0666 3.86661 72.7999 3.86661 72.7999 5.19994C72.6666 6.66661 72.1332 6.53327 70.6666 4.53327C69.3332 2.93327 68.9332 2.66661 69.3332 4.13327C69.9999 5.73327 69.0666 6.13327 65.3332 6.13327C62.7999 5.99994 60.6666 5.46661 60.6666 4.93327C60.6666 4.26661 59.9999 4.26661 59.0666 4.79994C58.2666 5.33327 54.9332 5.99994 51.7332 6.26661C47.3332 6.53327 46.1332 6.26661 46.7999 4.93327C47.5999 3.73327 47.4666 3.73327 45.8666 4.93327C44.7999 5.86661 40.2666 6.66661 35.7332 6.93327C31.3332 7.19994 27.8666 7.73327 28.1332 8.13327C28.7999 9.19994 22.1332 11.1999 19.4666 10.7999C18.5332 10.6666 18.1332 11.0666 18.5332 11.7333C19.3332 13.0666 12.7999 18.1333 10.9332 17.5999C10.2666 17.4666 10.1332 17.8666 10.5332 18.5333C11.0666 19.1999 10.7999 20.1333 10.1332 20.5333C9.5999 20.9333 7.33323 24.7999 5.33323 28.9333C1.73323 36.2666 1.46657 37.8666 0.799901 61.3333C0.399901 74.9333 0.266567 176.933 0.666567 288L1.33323 490L4.93323 497.733C6.93323 502 8.26657 506.267 7.86657 507.333C7.33323 508.4 7.73323 509.333 8.66657 509.333C9.46657 509.333 9.73323 508.667 9.33323 507.867C8.7999 507.2 11.5999 508.933 15.5999 511.867C19.4666 514.933 23.1999 517.333 23.7332 517.333C24.3999 517.333 24.3999 518 23.8666 518.933C23.3332 519.867 23.4666 520 24.3999 519.467C25.1999 518.933 28.6666 519.467 31.9999 520.667C37.4666 522.4 107.067 522.667 707.733 522.667C1404.27 522.667 1381.73 522.8 1394.53 517.867C1396.27 517.2 1396.8 517.333 1396.13 518.4C1395.73 519.2 1396 520.267 1396.8 520.8C1397.87 521.333 1398 521.2 1397.47 520.267C1396.93 519.333 1397.33 518.667 1398.27 518.667C1399.6 518.667 1399.6 518.4 1398.27 517.467C1396.93 516.667 1397.6 515.6 1400.93 513.6C1407.07 509.867 1413.2 500.8 1415.87 492.133C1417.73 485.6 1418 463.067 1418 264C1418 62.2666 1417.87 42.5333 1415.87 35.9999C1414.53 31.9999 1413.47 27.4666 1413.33 25.9999C1413.2 24.5333 1412.4 23.4666 1411.73 23.5999C1410.93 23.7333 1407.73 21.0666 1404.53 17.5999C1401.33 14.1333 1398 11.1999 1397.33 10.9333C1396.53 10.7999 1393.2 9.73327 1389.73 8.53327C1385.07 7.06661 1377.33 6.39994 1361.47 6.26661C1348.8 6.13327 1339.87 5.46661 1340.4 4.79994C1340.8 4.13327 1340.27 3.99994 1339.33 4.66661C1336.8 6.26661 1308.93 6.79994 1303.6 5.33327C1301.07 4.66661 1299.6 4.66661 1300 5.46661C1300.53 6.13327 1299.2 6.66661 1297.33 6.66661C1295.47 6.66661 1294.13 6.13327 1294.53 5.46661C1295.07 4.79994 1293.6 4.53327 1291.33 4.79994C1288.67 5.33327 1287.33 4.93327 1287.33 3.73327C1287.2 2.53327 1286.93 2.53327 1286 3.99994C1285.2 5.46661 1283.07 5.99994 1278.4 5.73327C1265.2 4.93327 1248.53 4.93327 1247.73 5.73327C1247.33 6.26661 1246.13 5.99994 1245.2 5.19994C1244 4.26661 1242.67 4.26661 1240.8 5.33327C1238.8 6.39994 1238 6.39994 1238 5.33327C1238 4.53327 1237.33 4.26661 1236.4 4.93327C1233.6 6.53327 1230.93 6.66661 1228.8 4.93327C1227.73 3.99994 1227.2 3.99994 1227.6 4.79994C1228.8 6.66661 1212.8 7.06661 1210.4 5.19994C1209.47 4.39994 1208.67 4.13327 1208.67 4.66661C1208.67 5.19994 1207.6 4.79994 1206.4 3.86661C1204.93 2.53327 1204.53 2.53327 1205.2 3.59994C1206.27 5.59994 1206.67 5.46661 1196.4 5.86661C1191.73 5.99994 1188.67 5.59994 1188.67 4.66661C1188.67 3.86661 1188.27 3.73327 1187.6 4.66661C1186.4 6.26661 1178 6.53327 1178 4.79994C1178 4.26661 1177.07 4.39994 1176 5.33327C1174.93 6.13327 1173.47 6.39994 1172.53 5.86661C1171.73 5.33327 1168.4 4.93327 1165.2 4.93327C1161.73 4.93327 1159.33 4.26661 1159.33 3.46661C1159.33 2.53327 1158.93 2.53327 1158.27 3.59994C1156.93 5.73327 1148.67 7.19994 1148.67 5.33327C1148.67 4.53327 1148.13 4.26661 1147.33 4.66661C1146.67 5.06661 1146 4.66661 1146 3.73327C1146 2.53327 1145.6 2.53327 1144.67 3.99994C1143.87 5.19994 1142.93 5.46661 1142.4 4.66661C1141.73 3.86661 1140.13 3.19994 1138.67 3.06661C1137.2 2.93327 1136.8 3.06661 1137.73 3.46661C1138.53 3.86661 1139.33 4.79994 1139.33 5.46661C1139.33 6.26661 1138.27 6.13327 1136.67 5.33327C1135.2 4.53327 1134 4.39994 1134 4.93327C1134 5.46661 1130.13 5.99994 1125.33 5.99994C1118.53 5.99994 1116.67 5.59994 1116.67 3.99994C1116.67 2.79994 1116.27 2.53327 1115.6 3.33327C1115.07 4.13327 1112.53 4.79994 1110 5.06661C1106.53 5.19994 1106 5.06661 1107.87 4.26661C1109.6 3.46661 1110 2.79994 1109.07 2.26661C1108.27 1.73327 1106.67 2.13327 1105.6 3.19994C1103.6 5.33327 1088.93 6.39994 1086.13 4.79994C1085.33 4.26661 1083.73 4.53327 1082.67 5.33327C1081.2 6.53327 1080.67 6.53327 1080.67 5.46661C1080.67 4.53327 1079.33 4.26661 1077.07 4.79994C1074.13 5.33327 1073.73 5.19994 1075.33 4.13327C1077.07 2.93327 1077.07 2.66661 1075.07 2.66661C1073.73 2.66661 1072.67 3.19994 1072.67 3.99994C1072.67 4.66661 1070.53 5.33327 1068 5.33327C1065.2 5.33327 1063.33 4.66661 1063.33 3.59994C1063.33 2.39994 1063.07 2.39994 1062.27 3.59994C1061.73 4.39994 1059.07 4.93327 1056.27 4.79994C1053.6 4.53327 1051.33 4.93327 1051.33 5.46661C1051.33 6.66661 1044.67 6.26661 1042.27 4.93327C1041.33 4.26661 1040.67 4.53327 1040.53 5.59994C1040.53 6.53327 1040 6.13327 1039.33 4.66661C1038.67 3.19994 1038.13 2.79994 1038.13 3.86661C1038 5.19994 1037.6 5.33327 1036.13 4.13327C1034.8 3.06661 1034 2.93327 1033.33 3.99994C1032.93 4.79994 1031.87 5.06661 1031.2 4.66661C1030.53 4.13327 1030 4.26661 1030 4.93327C1030 6.26661 1023.07 6.13327 1020.93 4.79994C1020 4.26661 1019.33 4.26661 1019.33 4.93327C1019.33 5.46661 1018.67 5.06661 1018 3.99994C1017.2 2.79994 1016.67 2.66661 1016.67 3.59994C1016.67 4.53327 1015.33 4.93327 1013.2 4.53327C1011.33 4.13327 1010.13 4.39994 1010.53 5.19994C1010.93 5.86661 1010.13 6.13327 1008.67 5.73327C1007.2 5.33327 1006.4 4.39994 1006.93 3.46661C1007.47 2.66661 1006.8 2.79994 1005.6 3.73327C1004.4 4.79994 1002.67 5.06661 1001.87 4.53327C1000.8 3.99994 1000.67 4.13327 1001.2 5.06661C1002.67 7.59994 1000.53 6.93327 998.4 4.26661C997.333 3.06661 996.8 2.66661 997.2 3.59994C997.733 4.53327 996.8 5.33327 995.067 5.59994C990.533 6.26661 984.533 5.19994 985.333 3.99994C985.733 3.33327 985.467 2.39994 984.667 1.99994C983.867 1.46661 983.467 1.86661 983.6 2.79994C983.867 3.59994 983.2 4.66661 982.133 5.06661C980.933 5.46661 980.667 5.06661 981.333 3.99994C982.133 2.66661 981.867 2.53327 980.533 3.46661C979.467 4.13327 975.733 4.66661 972 4.79994C968.4 4.79994 964 5.33327 962.4 5.86661C960.667 6.39994 959.333 6.26661 959.333 5.59994C959.333 4.93327 956.267 4.53327 952.533 4.79994C946.4 5.19994 946 4.93327 947.6 2.93327C949.067 0.933274 949.067 0.933274 947.2 2.26661C946 3.19994 944.533 3.46661 944 2.93327C943.333 2.39994 943.333 2.66661 943.733 3.46661C944.267 4.39994 943.333 5.19994 941.6 5.59994C938 6.26661 935.067 5.46661 935.867 4.13327C936.267 3.59994 935.733 3.06661 934.667 3.06661C933.6 3.06661 933.067 3.59994 933.333 4.13327C933.733 4.66661 931.867 5.06661 929.333 5.06661C926.8 5.06661 924.667 4.53327 924.667 3.86661C924.667 3.19994 923.6 2.66661 922.4 2.66661C920.4 2.66661 920.267 2.93327 922 3.99994C923.467 4.93327 922.8 5.33327 919.333 5.33327C916.667 5.33327 913.733 4.53327 912.8 3.59994C911.333 2.26661 911.067 2.26661 911.867 3.59994C912.533 4.79994 911.6 5.33327 909.067 5.46661C907.067 5.59994 904.8 5.46661 904 5.33327C899.467 4.39994 883.733 4.79994 884.267 5.86661C884.8 6.53327 884.267 6.66661 883.2 5.86661C881.2 4.66661 870 4.13327 870 5.33327C870 5.73327 867.467 5.86661 864.4 5.59994C861.2 5.33327 856.8 5.19994 854.4 5.33327C852.133 5.33327 849.867 4.79994 849.333 3.99994C848.8 3.19994 847.333 3.19994 844.933 4.39994C841.867 5.73327 837.6 6.13327 830.267 5.46661C829.333 5.46661 828.933 4.53327 829.333 3.59994C829.867 2.79994 829.467 2.93327 828.4 3.99994C827.467 5.06661 824.933 5.99994 822.667 5.99994C820.533 5.99994 817.867 5.06661 816.933 3.99994C815.733 2.66661 815.467 2.53327 816.133 3.86661C816.667 5.06661 816.4 5.46661 815.2 5.06661C814.133 4.66661 812.267 4.93327 811.067 5.46661C809.867 6.13327 808.533 6.13327 808.133 5.59994C807.733 4.93327 805.2 4.66661 802.4 4.93327C799.6 5.06661 797.067 4.53327 796.4 3.59994C795.733 2.53327 795.333 2.93327 795.333 4.66661C795.333 6.93327 795.067 6.93327 794 5.33327C793.333 4.26661 792.667 3.86661 792.667 4.66661C792.667 5.46661 788.933 5.99994 784 5.99994C779.2 5.99994 775.333 5.46661 775.333 4.93327C775.333 4.26661 774.8 4.13327 774.267 4.53327C772.267 5.73327 752.4 6.79994 753.067 5.73327C753.467 5.06661 750.667 4.93327 746.8 5.33327C743.067 5.73327 738 5.73327 735.6 5.19994C733.067 4.66661 731.2 4.93327 730.8 5.86661C730.4 6.79994 730.133 6.66661 730.133 5.59994C730 4.66661 729.467 4.26661 728.667 4.66661C726.267 6.13327 701.467 5.73327 700.933 4.13327C700.667 3.33327 699.867 2.66661 699.2 2.66661C698.4 2.66661 698.267 3.33327 698.667 3.99994C699.867 5.86661 682.933 5.46661 681.733 3.59994C681.2 2.66661 680.267 2.66661 679.067 3.59994C678.133 4.39994 674.4 5.46661 670.8 5.86661C664.8 6.53327 664.533 6.53327 666.133 4.26661C667.867 2.26661 667.733 2.13327 665.733 3.86661C664.4 4.79994 661.867 5.33327 660 5.06661C658.133 4.66661 656.667 4.79994 656.667 5.19994C656.667 5.59994 649.6 5.86661 641.067 5.73327C632.4 5.46661 620.667 5.33327 615.067 5.19994C608.133 5.06661 604.667 4.53327 604.667 3.59994C604.667 2.53327 604.267 2.53327 603.6 3.73327C602.933 4.66661 600.667 5.46661 598.533 5.46661C588.533 5.59994 583.333 5.06661 583.333 3.86661C583.333 3.19994 582.8 2.66661 582 2.66661C581.333 2.66661 580.8 3.33327 581.067 4.26661C581.2 5.06661 579.733 5.73327 577.733 5.73327C565.067 5.46661 564.533 5.33327 565.467 3.59994C566.133 2.53327 565.733 2.66661 564.133 3.86661C562.533 5.19994 558.533 5.73327 550.267 5.59994C522.8 5.06661 506.4 5.19994 502.4 6.13327C499.333 6.66661 498 6.53327 498 5.46661C498 4.53327 497.467 4.13327 496.8 4.66661C495.067 5.59994 446.667 5.73327 440.4 4.66661C437.6 4.26661 435.333 4.39994 435.333 4.93327C435.333 5.59994 433.2 5.99994 430.667 5.99994C427.467 5.99994 426.133 5.46661 426.667 4.26661C427.067 3.19994 426.4 3.19994 424.267 4.53327C422.133 5.99994 420 6.26661 416.4 5.46661C413.733 4.79994 411.2 4.66661 410.8 5.06661C409.733 6.13327 373.467 5.99994 371.6 4.93327C370.8 4.39994 369.867 4.53327 369.333 5.33327C368 7.59994 366 6.79994 366.933 4.26661C367.733 2.13327 367.733 2.13327 365.6 4.26661C364.133 5.59994 362 6.26661 359.733 5.86661C357.6 5.46661 354.933 5.19994 353.6 5.19994C352.133 5.19994 351.6 4.53327 352.267 3.59994C352.933 2.39994 352.667 2.39994 351.2 3.59994C349.467 5.06661 344.8 5.46661 331.467 5.46661C329.067 5.46661 326.267 4.79994 325.333 3.99994C324.267 3.06661 323.2 3.06661 322.8 3.73327C321.6 5.59994 307.2 5.46661 304.8 3.59994C303.2 2.39994 303.067 2.39994 303.867 3.59994C304.933 5.46661 304.8 5.46661 291.067 5.86661C286 5.86661 282 5.59994 282 5.19994C282 4.66661 279.733 4.79994 277.067 5.19994C274.267 5.73327 269.733 5.73327 267.067 5.33327C264.267 4.79994 262 4.93327 262 5.59994C262 6.26661 260 6.66661 257.733 6.39994C255.333 6.13327 253.467 5.33327 253.6 4.53327C253.733 3.73327 253.067 3.06661 252 3.06661C250.933 3.06661 250.4 3.59994 250.8 4.26661C251.2 4.79994 250.133 5.33327 248.4 5.46661C246.667 5.46661 243.733 5.73327 241.6 5.99994C239.333 6.26661 238.267 5.99994 238.8 5.06661C239.333 4.13327 238.8 4.13327 237.2 4.93327C234.533 6.26661 223.2 6.26661 220.933 4.79994C220.267 4.39994 219.333 4.53327 218.8 4.93327C217.6 6.26661 210 6.39994 210 5.06661C210 4.53327 208.667 4.53327 207.067 5.19994C205.333 5.86661 202.8 5.86661 201.333 5.33327C199.867 4.79994 198.133 4.66661 197.467 5.06661C196.8 5.46661 194.267 5.73327 191.733 5.86661C188.667 5.99994 187.333 5.46661 187.333 3.99994C187.333 2.53327 187.067 2.39994 186.267 3.59994C185.733 4.53327 182.8 5.59994 180 5.99994C176.133 6.53327 175.2 6.39994 176.667 5.46661C177.733 4.66661 178 3.99994 177.2 3.99994C176.4 3.99994 175.333 4.39994 174.8 4.93327C173.467 6.39994 164.667 6.79994 164.667 5.33327C164.667 4.66661 163.733 4.39994 162.667 4.93327C161.467 5.33327 157.067 5.73327 152.933 5.86661C146.8 5.99994 144.933 5.46661 143.067 3.33327L140.8 0.666607L141.467 3.33327ZM1374.8 45.5999C1380.8 48.7999 1381.87 52.6666 1381.87 70.2666C1381.87 78.9333 1381.87 87.1999 1382 88.6666C1382 90.1333 1382 121.6 1381.87 158.667C1381.87 195.733 1381.87 227.733 1382 230C1382.67 248.933 1382.67 470.4 1381.87 472C1381.33 473.067 1380.13 475.733 1379.2 477.733C1378.13 480 1376.8 481.2 1375.73 480.667C1374.67 480.4 1374.13 480.533 1374.53 481.2C1374.93 481.867 1374 482.667 1372.27 483.2C1367.07 484.533 1278.27 484.133 1277.33 482.667C1276.93 481.867 1275.73 481.333 1274.93 481.333C1274 481.333 1274.13 481.867 1275.33 482.667C1276.67 483.467 1253.47 484 1208.53 484C1155.47 484 1139.47 483.6 1138.13 482.267C1136.67 481.067 1136.53 481.067 1137.2 482.267C1138 483.6 1120.67 484 1053.33 484C986.267 484 968.667 483.6 969.467 482.267C970.133 481.067 970 481.067 968.533 482.267C966 484.8 722 484.8 719.467 482.4C718 481.067 717.733 481.067 718.533 482.267C719.333 483.6 684.533 484 546.4 483.867C448.667 483.867 374.533 483.333 376 482.667C378.133 481.733 378.267 481.467 376.4 481.467C375.2 481.333 373.733 481.867 373.333 482.667C372 484.8 252.667 484.533 252.533 482.267C252.533 481.067 252.267 481.067 251.733 482.267C251.2 483.6 229.2 484 149.6 484C55.4666 484 47.7332 483.733 45.1999 481.6C43.5999 480.4 41.5999 478 40.7999 476.4C39.7332 474.267 39.3332 416 39.3332 265.333C39.3332 61.7333 39.3332 57.0666 41.8666 52.1333C44.5332 47.1999 48.2666 44.7999 55.3332 43.5999C57.1999 43.3333 353.867 43.0666 714.667 43.1999C1325.6 43.3333 1370.93 43.4666 1374.8 45.5999Z" fill="#F32320"/>
<path d="M438.667 54.6667C438 55.8667 382.667 56 99.9999 56.1334C83.8666 56.1334 68.2666 56.6667 65.3332 57.3334C61.8666 58.1334 59.7332 58 59.1999 57.2C58.7999 56.4 57.9999 57.3334 57.4666 59.2C56.9332 61.2 56.1332 62.5334 55.5999 62.1334C53.9999 61.2 53.8666 63.6 52.7999 98C52.2666 115.6 51.7332 125.867 51.5999 120.8C51.4666 115.733 51.0666 111.867 50.6666 112.267C49.4666 113.467 49.1999 135.867 50.3999 135.067C50.9332 134.8 51.0666 134 50.6666 133.333C50.2666 132.667 50.5332 131.867 51.3332 131.333C52.2666 130.8 52.6666 138.4 52.6666 154C52.6666 169.333 52.2666 177.2 51.3332 176.667C50.5332 176.133 49.9999 178.133 49.8666 181.6C49.7332 184.8 49.5999 189.333 49.4666 191.6C49.1999 196.533 50.7999 197.6 51.7332 192.933C52.2666 190.267 52.2666 190.4 52.5332 193.467C52.5332 195.467 51.8666 197.333 50.9332 197.733C49.7332 198.133 49.3332 199.867 49.7332 202.933C50.2666 206.667 50.5332 206.933 51.4666 204.667C52.2666 202.4 52.5332 202.533 52.5332 205.733C52.6666 207.867 52.1332 209.2 51.4666 208.667C50.7999 208.267 49.8666 208.533 49.3332 209.333C48.9332 210 49.4666 210.667 50.5332 210.667C51.7332 210.667 52.6666 211.6 52.6666 212.8C52.6666 213.867 52.1332 214.533 51.5999 214.133C51.0666 213.867 50.5332 215.067 50.3999 217.067C50.1332 220.267 50.2666 220.267 51.3332 218C52.3999 215.467 52.5332 215.467 52.5332 218.267C52.6666 220 52.1332 221.333 51.3332 221.333C50.6666 221.333 49.9999 222.4 49.9999 223.6C49.9999 225.6 50.2666 225.733 51.3332 224C52.1332 222.667 52.6666 228.8 52.5332 242.667C52.5332 255.467 51.9999 262.267 51.3332 260.667C50.3999 258.533 50.1332 259.2 50.1332 263.333C50.1332 267.467 50.3999 268.133 51.3332 266C51.9999 264.4 52.5332 271.333 52.5332 284.267C52.6666 298.667 52.1332 305.467 51.0666 306.133C50.1332 306.8 49.9999 306.4 50.6666 305.2C51.3332 304.133 51.1999 303.733 50.6666 304.4C49.3332 305.467 48.9332 325.333 50.1332 325.333C50.6666 325.333 51.0666 321.6 51.1999 317.2C51.1999 312.667 51.5999 308.667 51.8666 308.267C52.2666 308 52.5332 313.067 52.5332 319.467C52.3999 327.067 51.9999 330.4 51.3332 328.667C50.3999 326.4 50.1332 326.533 49.8666 330C49.1999 339.6 49.3332 341.733 50.9332 342.267C51.9999 342.667 52.5332 344.933 52.3999 347.867L52.2666 352.667L51.7332 348.267C51.4666 345.867 50.6666 344.267 50.1332 344.533C48.7999 345.467 49.9999 353.333 51.4666 353.333C52.1332 353.333 52.5332 354.667 52.5332 356.267C52.3999 358.533 52.2666 358.8 51.7332 356.933C50.7999 353.6 49.0666 354.133 49.4666 357.6C49.5999 359.333 49.8666 361.6 49.9999 362.667C50.1332 364.133 50.5332 363.867 51.3332 362C52.1332 360.267 52.3999 363.333 52.2666 370.667C52.2666 378.267 51.9999 379.6 51.7332 374.933C51.0666 366.267 49.1999 365.733 49.4666 374.267C49.5999 377.867 49.8666 382.4 49.8666 384.667C49.9999 387.733 50.3999 388.267 51.3332 386.667C52.1332 385.333 52.5332 397.6 52.6666 421.733C52.6666 446 52.1332 458.533 51.3332 458C50.5332 457.467 50.6666 458.667 51.4666 460.533C52.3999 462.4 53.4666 463.6 53.9999 463.333C54.5332 462.933 56.1332 464 57.4666 465.6C59.8666 468.267 59.8666 468.4 57.5999 467.6C56.1332 467.067 55.4666 467.2 55.9999 468.133C56.5332 468.933 57.7332 469.2 58.7999 468.8C59.7332 468.4 60.9332 468.667 61.3332 469.333C61.8666 470.133 115.6 470.667 205.067 470.667C297.867 470.667 347.333 471.2 346 472C344.267 473.067 344.4 473.333 346.4 473.333C347.6 473.333 348.667 472.8 348.667 472C348.667 471.2 451.867 470.667 650.133 470.667C890.267 470.667 951.333 471.067 950.533 472.4C949.867 473.6 950 473.6 951.467 472.267C952.8 471.067 970.4 470.667 1030 470.667C1089.6 470.667 1107.2 471.067 1108.53 472.267C1110 473.6 1110.13 473.6 1109.47 472.4C1108.13 470 1176.8 470.133 1178.27 472.4C1179.07 473.6 1179.33 473.6 1179.33 472.267C1179.33 471.067 1197.87 470.667 1267.47 470.667C1352.93 470.667 1355.87 470.533 1360 468C1367.47 463.333 1367.87 461.6 1368.4 420.667C1368.8 399.6 1369.47 384.533 1370.13 386C1371.07 388.267 1371.07 388.133 1370.93 385.067C1370.8 383.067 1370.27 381.867 1369.73 382.133C1369.2 382.533 1368.67 327.867 1368.67 260.8C1368.67 180.267 1369.07 138.667 1370 138.667C1370.8 138.667 1371.33 137.6 1371.33 136.267C1371.33 134.4 1371.07 134.267 1370 136C1369.33 137.2 1368.67 125.333 1368.4 104C1368 67.4667 1367.47 64.8 1360.67 59.8667C1358.8 58.5334 1355.6 57.2 1353.33 56.8C1351.2 56.5334 1302.93 56.1334 1246.27 56.1334C1164.13 56 1143.33 55.6 1144.13 54.2667C1144.93 53.0667 1144.8 53.0667 1143.2 54.2667C1141.6 55.6 1090.8 56 909.2 56C758.267 56 678 55.4667 679.333 54.6667C680.533 53.8667 680.667 53.3334 679.733 53.3334C678.933 53.3334 677.733 53.8667 677.333 54.6667C676.133 56.5334 659.333 56.4 659.333 54.5334C659.333 53.4667 658.8 53.3334 657.6 54.5334C654.8 56.8 444.133 56.6667 445.467 54.2667C446.133 53.0667 446 53.0667 444.533 54.2667C442.4 56.2667 438.8 56.5334 440 54.6667C440.4 53.8667 440.533 53.3334 440.133 53.3334C439.733 53.3334 439.067 53.8667 438.667 54.6667ZM81.4666 71.8667C81.0666 72.5334 82.5332 73.3334 84.7999 73.6C86.9332 74 89.1999 73.6 89.5999 72.9334C89.9999 72.1334 89.7332 72 88.9332 72.5334C88.1332 72.9334 87.1999 72.9334 86.7999 72.2667C86.5332 71.7334 87.9999 71.0667 90.1332 70.9334C92.2666 70.8 93.9999 71.2 93.9999 72C93.9999 72.6667 95.5999 73.3334 97.4666 73.3334C99.3332 73.3334 100.533 72.8 99.9999 72C98.9332 70.2667 102.4 70.2667 104.267 72.1334C106.133 74 135.733 74 136.4 72.1334C136.667 71.3334 137.467 70.6667 138.133 70.6667C138.933 70.6667 139.067 71.2 138.667 72C137.467 74 145.067 73.6 147.2 71.6C148.667 70.2667 148.933 70.2667 148.133 71.6C147.467 72.8 148.4 73.3334 151.2 73.3334C153.6 73.3334 155.333 72.6667 155.467 71.6C155.467 70.2667 155.733 70.2667 156.267 71.6C156.533 72.5334 157.467 73.3334 158.133 73.3334C158.933 73.3334 159.067 72.5334 158.533 71.6C157.733 70.2667 158 70.2667 159.467 71.6C161.6 73.6 163.867 73.8667 162.667 72C162.267 71.2 163.2 70.6667 164.933 70.6667C167.467 70.6667 167.6 70.9334 166 72.1334C164.4 73.3334 164.533 73.3334 166.667 72.6667C171.867 70.8 175.333 70.4 175.333 71.7334C175.333 72.4 176.267 73.4667 177.467 73.8667C179.2 74.5334 179.333 74.2667 178.267 72.9334C177.2 71.6 177.467 71.2 179.467 71.0667C180.8 70.9334 182 71.3334 182 72.1334C182 72.8 183.2 73.3334 184.8 73.3334C186.267 73.3334 187.067 72.6667 186.667 72C186.267 71.2 186.8 70.6667 188 70.6667C189.2 70.6667 189.733 71.2 189.333 72C188.933 72.6667 189.467 73.3334 190.667 73.3334C192 73.3334 192.533 72.6667 191.867 71.6C191.067 70.2667 191.333 70.2667 192.8 71.6C193.733 72.5334 195.2 73.3334 196 73.3334C196.667 73.3334 196.4 72.6667 195.333 72C194 71.0667 197.867 70.6667 207.733 70.6667C216.4 70.6667 222 71.2 222 72C222 72.6667 223.333 73.3334 225.067 73.3334C227.467 73.3334 227.6 73.0667 226 72C224.4 71.0667 224.933 70.6667 228 70.6667C231.067 70.6667 231.6 71.0667 230 72C228.4 73.0667 228.8 73.3334 231.733 73.3334C233.867 73.3334 235.2 72.8 234.667 72C234.267 71.2 235.067 70.6667 236.533 70.6667C238.133 70.6667 239.333 71.2 239.333 72C239.333 72.6667 241.333 73.3334 243.867 73.3334C246.4 73.3334 248.933 72.6667 249.333 72C249.733 71.2 252.667 70.6667 255.733 70.6667C259.867 70.6667 260.8 71.0667 259.333 72C258.133 72.8 258 73.3334 258.933 73.3334C259.733 73.3334 260.8 72.8 261.2 72.1334C261.6 71.4667 267.2 70.9334 273.6 70.9334C281.733 70.9334 284.133 71.2 281.333 72C278 72.8 278.667 73.0667 285.067 73.2C293.467 73.3334 294.8 73.2 294.267 71.6C294.133 71.0667 296.133 70.6667 298.8 70.6667C301.6 70.6667 303.2 71.2 302.667 72C302.267 72.6667 302.4 73.3334 303.2 73.3334C303.867 73.3334 304.667 72.5334 305.067 71.6C305.467 70.4 306 70.4 307.733 71.8667C309.2 73.0667 310.533 73.2 311.733 72.4C312.533 71.7334 315.733 71.0667 318.667 70.8C322.667 70.6667 323.467 70.9334 322 71.8667C320.4 73.0667 320.533 73.3334 323.067 73.3334C324.667 73.3334 326 72.6667 326 72C326 69.8667 334.933 70.4 335.867 72.6667C336.267 73.7334 337.467 74.2667 338.667 73.8667C339.733 73.4667 340.267 72.4 339.733 71.4667C339.333 70.6667 340.133 71.0667 341.6 72.4C343.467 74 344.667 74.4 345.333 73.4667C345.733 72.6667 345.467 72 344.533 72C343.6 72 343.333 71.6 343.733 71.2C344.267 70.6667 345.6 71.0667 346.933 72.1334C348.4 73.3334 348.8 73.4667 348.133 72.2667C347.467 71.0667 349.067 70.6667 354.667 70.6667C358.8 70.6667 361.867 71.2 361.467 71.7334C361.067 72.4 361.6 72.9334 362.667 72.9334C363.733 72.9334 364.267 72.4 363.867 71.7334C363.467 71.2 367.6 70.6667 372.933 70.8C379.467 70.9334 381.6 71.2 379.333 72C377.2 72.5334 379.867 72.9334 387.067 73.0667C394.133 73.2 397.867 72.8 397.333 72C396.8 71.2 401.6 70.6667 410.667 70.6667C419.733 70.6667 424.533 71.2 424 72C423.6 72.6667 424.133 73.3334 425.333 73.3334C426.533 73.3334 427.067 72.6667 426.667 72C426.133 71.2 427.733 70.6667 430.533 70.6667C433.2 70.6667 435.333 71.2 435.333 71.7334C435.333 72.2667 436.533 72.8 438 72.9334C439.467 73.0667 440.667 72.6667 440.667 71.8667C440.667 71.2 444.4 70.8 449.067 70.8C456.267 70.9334 456.667 71.2 452.667 72L448 73.0667L453.6 72.9334C456.667 72.9334 458.933 72.4 458.533 71.7334C458.133 71.2 458.4 70.6667 459.2 70.6667C459.867 70.6667 460.933 71.3334 461.467 72.1334C462 73.2 462.667 73.2 463.733 72.1334C464.533 71.3334 465.867 70.6667 466.533 70.6667C467.333 70.6667 467.067 71.3334 466 72C464.267 73.0667 464.4 73.3334 466.4 73.3334C467.6 73.3334 468.667 72.6667 468.667 72C468.667 71.2 470.533 70.6667 472.8 70.6667C475.067 70.6667 476.533 71.2 476 72C475.6 72.6667 475.867 73.3334 476.533 73.3334C477.333 73.3334 478 72.6667 478 72C478 71.2 478.667 70.6667 479.467 70.6667C480.133 70.6667 480.4 71.2 480 72C479.6 72.6667 480.133 73.3334 481.333 73.3334C482.533 73.3334 483.067 72.6667 482.667 72C482.133 71.2 484.933 70.6667 490 70.6667C494.533 70.6667 497.867 71.2 497.467 71.7334C497.067 72.4 497.467 72.9334 498.4 72.9334C499.333 72.9334 500.667 73.2 501.333 73.3334C502.133 73.4667 503.6 73.6 504.667 73.4667C506.4 73.3334 506.4 73.2 504.667 72C502.933 70.9334 502.933 70.6667 504.8 70.6667C506 70.6667 507.467 71.7334 508 72.9334C508.8 75.2 508.933 75.2 510.133 72.9334C510.933 71.7334 512.667 70.6667 514.133 70.6667C516 70.6667 516.533 71.2 515.867 72.2667C515.2 73.4667 515.6 73.4667 517.067 72.1334C518.533 70.9334 519.333 70.8 519.333 71.8667C519.333 72.6667 521.467 73.3334 524 73.3334C526.533 73.3334 528.667 72.6667 528.667 72C528.667 70 540.267 70.4 541.067 72.2667C541.6 73.6 542.133 73.4667 543.2 72C544.4 70.2667 544.667 70.4 544.8 72.6667C544.933 74.9334 545.067 74.9334 545.6 72.9334C546.267 70.2667 548.667 69.8667 548.667 72.2667C548.667 73.4667 549.067 73.4667 549.733 72.6667C550.8 71.0667 553.333 70.9334 554.8 72.2667C555.333 72.9334 557.067 73.3334 558.533 73.2C561.333 73.2 561.333 73.0667 558.667 72C556.267 70.9334 556.4 70.8 559.733 70.8C561.867 70.6667 563.2 71.2 562.667 72C562.133 72.8 563.467 73.3334 565.6 73.2C568.933 73.2 569.067 73.0667 566.667 72C564.4 71.0667 564.533 70.8 568 70.8C570.267 70.6667 572.8 71.3334 573.733 72.2667C574.933 73.4667 575.333 73.4667 575.333 72.2667C575.333 71.3334 576.667 70.6667 578.4 70.8C581.067 70.8 581.2 70.9334 578.8 71.8667C576.267 72.8 576.267 72.9334 579.067 73.6C581.067 74.1334 582 73.8667 582 72.5334C582 70.2667 586 70 586.133 72.2667C586.133 73.6 586.4 73.6 586.933 72.2667C587.2 71.4667 589.2 70.8 591.067 70.8L594.667 71.0667L591.333 71.7334C585.067 72.9334 592 74 602.267 73.4667C610.4 72.9334 611.2 72.6667 607.333 72C602.933 71.0667 602.933 71.0667 609.2 70.8C615.2 70.6667 615.467 70.8 613.867 72.9334C612.133 75.2 612.133 75.2 615.6 72.9334C619.6 70.5334 624 69.8667 622.667 72C622.267 72.6667 622.533 73.3334 623.2 73.3334C624 73.3334 624.667 72.6667 624.667 72C624.667 71.0667 625.467 71.0667 627.2 72C628.667 72.6667 630.667 73.3334 631.6 73.2C632.533 73.2 632.133 72.6667 630.667 72C628.267 70.9334 628.4 70.8 631.6 70.8C634 70.6667 635.067 71.2 634.667 72.2667C634.133 73.6 637.467 73.8667 649.333 73.6C658.533 73.3334 664.4 72.6667 664 71.8667C663.467 71.2 664.133 70.6667 665.333 70.6667C666.533 70.6667 667.067 71.2 666.667 72C666.267 72.6667 666.8 73.3334 668 73.3334C669.2 73.3334 669.867 72.8 669.467 72.2667C669.067 71.6 671.333 71.0667 674.4 70.9334C678.533 70.6667 679.467 70.9334 678 72C676.8 72.8 676.667 73.3334 677.6 73.3334C678.4 73.3334 679.6 72.6667 680 72C680.4 71.2 681.6 70.6667 682.4 70.6667C683.333 70.6667 683.2 71.2 682 72C680.4 72.9334 680.933 73.3334 684 73.3334C687.067 73.3334 687.6 72.9334 686 72C684.4 70.9334 684.667 70.6667 687.333 70.6667C689.333 70.6667 691.6 71.4667 692.533 72.2667C694 73.6 694.267 73.6 693.467 72.2667C692.8 71.0667 694.8 70.6667 702.267 70.6667C708.267 70.6667 711.333 71.2 710.133 71.8667C708.933 72.6667 710.133 73.2 713.867 73.6C720 74.1334 724.533 72.5334 719.2 71.7334C717.467 71.4667 719.733 71.0667 724.4 71.0667C729.467 70.9334 732.667 71.3334 732.667 72.2667C732.667 73.2 733.467 73.0667 734.667 72C736 70.8 736.667 70.8 736.667 71.8667C736.667 72.6667 738 73.3334 739.733 73.2C742.533 73.2 742.533 73.0667 740 72C738.133 71.2 740.667 70.8 747.733 70.8C754.4 70.6667 757.867 71.2 757.333 72C756.933 72.6667 757.067 73.3334 757.867 73.3334C758.533 73.3334 759.6 72.6667 760 72C760.4 71.2 763.067 70.8 765.733 70.8L770.667 71.0667L765.333 72C761.067 72.8 762.4 72.9334 771.333 73.0667C779.067 73.2 782 72.9334 780.667 72C779.2 71.0667 780.133 70.6667 784 70.6667C786.933 70.8 790.533 71.6 791.867 72.6667C793.2 73.7334 794.8 74.2667 795.333 74C795.867 73.6 804.133 73.2 813.467 73.2C823.467 73.0667 829.2 72.5334 827.333 71.8667C824.933 71.2 826.133 70.9334 831.733 70.8C836.133 70.6667 839.2 71.2 838.8 71.8667C838.267 72.5334 845.467 73.0667 856 73.2C866.8 73.2 874 72.6667 874 72C874 70.2667 881.6 70.2667 882.667 72C883.067 72.6667 885.2 73.3334 887.467 73.3334C889.6 73.3334 891.333 72.6667 891.333 72C891.333 71.2 895.867 70.6667 902.133 70.6667C908.933 70.6667 912.533 71.2 912 72C911.333 73.0667 921.733 74.1334 926.267 73.4667C926.8 73.4667 930 73.2 933.333 73.0667C937.067 72.9334 938.8 72.5334 937.733 71.8667C936.667 71.2 938.4 70.8 942 70.8C947.467 70.9334 947.6 71.0667 944 72C940.533 72.8 941.067 73.0667 947.067 73.2C951.467 73.3334 953.867 72.8 953.333 72C952.933 71.2 953.733 70.6667 955.2 70.6667C956.8 70.6667 958 71.3334 958 72.1334C958 72.8 957.333 73.0667 956.4 72.5334C955.467 71.8667 955.333 72.1334 955.867 73.2C956.667 74.4 957.467 74.4 959.2 72.8C961.733 70.4 968.667 69.8667 968.667 72C968.667 72.6667 970.667 73.3334 973.067 73.2C976.667 73.2 976.933 72.9334 974.667 72C972.133 70.9334 972.133 70.8 974.933 70.8C976.533 70.6667 978 71.4667 978.4 72.2667C978.8 73.6 979.467 73.6 981.2 72.1334C983.2 70.5334 983.333 70.5334 982.533 72.8C981.867 75.2 981.867 75.2 983.867 72.8C985.067 71.3334 986 70.9334 986 71.7334C986 72.6667 986.667 73.3334 987.467 73.3334C988.133 73.3334 988.4 72.6667 988 72C987.6 71.2 987.867 70.6667 988.533 70.6667C989.333 70.6667 990 71.2 990 72C990 72.6667 991.2 73.3334 992.8 73.3334C994.267 73.3334 995.067 72.6667 994.667 72C993.333 69.8667 1001.47 70.4 1003.2 72.5334C1004.8 74.5334 1010.53 73.8667 1009.2 71.8667C1008.8 71.2 1009.87 70.6667 1011.6 70.6667C1014 70.6667 1014.27 70.9334 1012.67 72C1011.2 72.9334 1011.87 73.3334 1015.33 73.2C1019.2 73.2 1019.47 72.9334 1017.33 72C1014.8 70.9334 1014.8 70.8 1017.73 70.8C1019.33 70.6667 1022 71.4667 1023.47 72.2667C1025.73 73.6 1026.53 73.6 1026.93 72.2667C1027.33 71.4667 1028.4 70.6667 1029.47 70.6667C1030.67 70.6667 1031.07 71.2 1030.67 72C1030.13 72.8 1033.33 73.2 1039.2 73.0667C1044.4 72.9334 1048.67 72.4 1048.67 71.8667C1048.67 71.2 1050.4 70.9334 1052.67 71.0667C1054.8 71.2 1056.67 71.7334 1056.67 72.2667C1056.67 72.9334 1057.33 73.3334 1058.13 73.3334C1058.8 73.3334 1059.07 72.8 1058.67 72C1058.27 71.3334 1058.8 70.6667 1059.87 70.6667C1061.07 70.6667 1062 71.2 1062 72C1062 72.6667 1062.67 73.3334 1063.47 73.3334C1064.13 73.3334 1064.4 72.8 1064 72C1063.6 71.2 1064.53 70.6667 1066.27 70.6667C1068.67 70.6667 1068.93 70.9334 1067.33 72C1065.73 72.9334 1066.27 73.3334 1069.33 73.4667C1071.6 73.4667 1076 73.6 1079.2 73.8667C1082.53 74 1085.87 73.3334 1086.8 72.4C1088.13 71.0667 1088.67 71.0667 1089.2 72.4C1089.87 73.6 1090.13 73.6 1090.8 72.2667C1091.2 71.4667 1093.2 70.6667 1095.07 70.6667C1097.87 70.6667 1098.27 70.9334 1096.67 72C1095.07 73.0667 1095.07 73.3334 1097.33 73.4667C1103.2 73.7334 1112 73.0667 1112.67 72.2667C1113.87 70.6667 1118 70.5334 1118 72C1118 72.6667 1119.33 73.3334 1121.07 73.2C1123.87 73.2 1123.87 73.0667 1121.33 72C1119.47 71.3334 1120.4 70.9334 1125.07 70.9334C1128.53 70.9334 1131.33 71.4667 1131.33 72.1334C1131.33 72.8 1132.27 73.3334 1133.47 73.3334C1134.53 73.3334 1135.2 72.8 1134.8 72.2667C1134.4 71.6 1134.93 71.0667 1135.87 71.0667C1136.93 71.0667 1137.47 71.7334 1137.2 72.5334C1136.67 73.8667 1138 74 1147.07 73.4667C1148.13 73.3334 1148.4 72.6667 1147.87 71.6C1147.07 70.2667 1147.33 70.2667 1148.8 71.6C1150.8 73.4667 1158 74 1158 72.2667C1158 71.6 1158.93 71.0667 1160 71.0667C1161.07 71.0667 1162 71.6 1162 72.2667C1162 72.8 1163.33 73.3334 1165.07 73.3334C1167.47 73.3334 1167.6 73.0667 1166 72C1164.4 70.9334 1164.8 70.6667 1167.73 70.6667C1169.73 70.6667 1171.33 71.2 1171.33 71.7334C1171.33 72.2667 1172.53 72.8 1174 72.9334C1175.47 73.0667 1176.4 72.6667 1176 71.8667C1175.47 71.2 1175.87 70.6667 1176.53 70.6667C1177.33 70.6667 1178 71.2 1178 72C1178 72.6667 1179.07 73.3334 1180.4 73.3334C1182.27 73.3334 1182.4 73.0667 1180.67 72C1179.2 71.0667 1180.67 70.6667 1185.73 70.6667C1190.4 70.6667 1192.67 71.2 1192.67 72.2667C1192.67 73.4667 1193.2 73.3334 1194 72C1194.8 70.6667 1195.33 70.5334 1195.33 71.6C1195.33 72.5334 1196 73.3334 1196.8 73.3334C1197.47 73.3334 1197.73 72.6667 1197.33 72C1196.93 71.2 1197.2 70.6667 1198 70.6667C1198.8 70.6667 1199.73 71.4667 1200.13 72.4C1200.93 74.5334 1208.67 73.7334 1208.67 71.4667C1208.67 70.6667 1209.33 70.9334 1210 72C1210.8 73.3334 1211.33 73.4667 1211.33 72.4C1211.33 71.2 1214.13 70.8 1221.33 70.9334C1228.13 71.0667 1230.93 71.4667 1230.4 72.5334C1229.87 73.3334 1230.53 73.2 1231.73 72.1334C1234 70.4 1242 70.5334 1251.33 72.6667C1254 73.2 1254.13 73.2 1252.13 72.2667C1250.4 71.6 1254.13 71.0667 1262.13 71.0667C1269.07 71.0667 1273.47 71.4667 1272.13 72C1269.87 72.8 1269.87 72.9334 1271.73 73.7334C1274.53 74.8 1283.47 73.3334 1282.53 71.8667C1282.13 71.2 1282.4 70.6667 1283.2 70.6667C1283.87 70.6667 1284.67 71.3334 1284.93 72.2667C1285.6 74.1334 1308.93 74 1312.53 72C1314.13 71.2 1315.47 71.3334 1316.4 72.2667C1317.6 73.4667 1318 73.4667 1318 72.2667C1318 71.3334 1318.67 70.6667 1319.47 70.6667C1320.13 70.6667 1320.4 71.2 1320 72C1319.6 72.6667 1320.13 73.3334 1321.33 73.3334C1322.67 73.3334 1323.2 72.6667 1322.53 71.6C1321.73 70.2667 1322 70.2667 1323.47 71.6C1324.4 72.5334 1325.87 73.3334 1326.53 73.3334C1327.33 73.3334 1327.07 72.6667 1326 72C1324.53 71.0667 1325.6 70.6667 1330 70.6667C1334.4 70.6667 1335.47 71.0667 1334 72C1332.27 73.0667 1332.27 73.3334 1334.27 73.3334C1335.47 73.3334 1336.67 72.6667 1336.93 71.8667C1337.33 70.6667 1338.93 70.6667 1342.67 71.4667C1346.8 72.4 1348.53 73.7334 1350.27 77.3334C1352.53 81.7334 1352.67 93.3334 1352.67 264.133C1352.67 364.267 1352.27 446.667 1351.73 447.2C1351.07 447.733 1350.67 448.8 1350.67 449.6C1350.67 450.4 1349.07 452.267 1347.2 453.733C1343.73 456.267 1340.93 456.267 1247.2 456.533C1161.87 456.8 1150.4 456.533 1148 454.667C1145.6 452.933 1145.6 452.933 1146.93 454.667C1148.27 456.533 1147.87 456.8 1143.6 456.667C1140.93 456.667 1138.27 456 1137.73 455.333C1137.07 454.4 1136.67 454.4 1136.67 455.333C1136.67 456.133 1130.8 456.667 1122 456.8C1114 456.8 1107.73 456.4 1108 455.867C1108.4 455.333 1106.4 455.467 1103.73 456.267C1100.13 457.2 1098.67 457.2 1098.27 456.133C1097.87 455.067 1097.07 455.067 1095.2 456.133C1093.07 457.2 1079.73 457.067 1076.67 456C1076.27 455.733 1075.47 455.733 1074.8 455.867C1073.2 456.267 1030 456.267 988 456C965.867 455.867 952.8 455.333 951.733 454.4C950.533 453.467 949.467 453.467 948.267 454.4C947.067 455.467 929.6 456 893.867 456.133C834.8 456.4 837.6 456.4 831.333 455.867C828.8 455.733 801.733 455.733 771.333 455.733C723.2 456 590.133 456.267 582.667 456.267C581.2 456.267 562.667 456.267 541.333 456.267C520.133 456.267 501.733 456.267 500.667 456.133C488.8 456 403.867 456.133 390.267 456.4C380.667 456.533 372.667 456.133 372.667 455.467C372.667 454.8 371.867 454.933 371.067 455.6C369.6 456.667 362.933 456.933 360.667 456C360.267 455.867 357.2 455.867 353.733 456C349.067 456.133 347.2 455.6 346 453.733C344.667 451.6 344.533 451.6 345.2 453.6C345.733 455.6 345.067 456 341.6 456C339.2 456 298.667 456.267 251.333 456.533C204 456.8 162.8 456.667 159.733 456.133C156.533 455.467 154 455.333 154 455.867C154 457.333 78.9332 456 75.0666 454.533C73.1999 453.733 70.9332 451.467 70.1332 449.6C69.1999 447.2 68.6666 427.333 68.5332 391.333C68.3999 361.2 68.5332 336 68.6666 335.333C68.7999 334.533 68.7999 333.733 68.6666 333.333C67.9999 332.133 67.7332 123.333 68.2666 122.267C68.6666 121.733 68.7999 111.2 68.6666 98.8C68.5332 78.9334 68.7999 76.2667 70.9332 74.4C74.6666 71.2 83.1999 69.0667 81.4666 71.8667Z" fill="#F32320"/>
<path d="M870.667 106.667C867.067 107.333 863.2 107.6 862.267 107.333C861.333 106.933 860.8 107.2 861.2 107.867C861.6 108.4 859.6 109.6 856.8 110.4C850.8 112.267 837.333 120.933 832.8 125.733C831.067 127.733 829.067 128.933 828.4 128.533C827.733 128.133 827.467 128.267 827.6 128.933C828.133 130.933 824.533 136.133 823.067 135.2C822.267 134.667 822 134.8 822.4 135.6C823.467 137.333 818.8 144.267 817.333 143.067C816.8 142.4 816.667 142.667 817.067 143.467C817.467 144.267 816.667 148.133 815.2 152.133C811.2 162.267 808.8 177.333 808.667 191.067C808.667 197.6 808.133 202.533 807.6 202.133C806.933 201.733 806.4 205.467 806.4 210.4C806.267 218.133 806.4 218.533 807.333 214C808.133 209.2 808.267 209.6 808.533 217.733C808.533 223.467 808.133 226.533 807.333 226C806.667 225.6 806 226.133 806 227.2C806 228.267 806.667 229.6 807.333 230C808.133 230.533 808.667 251.2 808.667 287.733C808.667 333.467 809.067 347.2 810.8 357.333C812 364.267 813.067 371.333 813.067 372.933C813.2 374.533 813.6 375.467 813.867 375.2C814.133 374.933 816 377.867 818 381.733C820.4 386.533 821.067 389.067 820 390C819.333 390.667 818.933 391.2 819.2 391.067C819.467 390.8 820.667 391.467 821.733 392.4C823.467 393.733 823.6 393.6 822.667 392C821.333 389.6 825.6 394 829.6 399.067C839.867 412.267 863.333 421.467 887.333 421.467C900.4 421.467 916.533 418.267 924.667 414C926.933 412.8 929.467 412.267 930.267 412.8C931.067 413.333 931.333 413.2 930.8 412.267C930 410.933 939.067 404.4 941.067 405.067C941.6 405.2 942 404.533 942 403.6C942 401.733 946.4 397.067 947.467 397.6C947.733 397.867 947.867 397.733 947.733 397.6C947.6 397.333 949.467 394 951.867 390.267C958.4 379.867 961.733 370.933 964 357.867C966.8 342 966.8 186.8 964.133 170C963.067 164.133 962.533 158.933 962.933 158.267C963.2 157.733 962.8 157.333 962.133 157.333C961.333 157.333 960.667 156.533 960.667 155.467C960.667 154.533 958.933 150.133 956.667 145.867C952.133 136.8 952.133 136.8 954.4 138.133C955.467 138.8 955.467 138.4 954.133 136.933C952.133 134.533 950.667 133.867 952 136C952.4 136.667 948.4 132.933 943.067 127.467C928.267 112.4 915.067 106.933 891.333 106C883.6 105.733 874.4 106 870.667 106.667ZM892.267 154.267C893.333 155.6 893.867 155.867 893.333 154.933C892.933 154 893.333 153.333 894.4 153.333C895.467 153.333 896.8 154.267 897.2 155.467C897.6 156.533 898.667 157.067 899.467 156.667C901.2 155.467 906.267 159.867 905.067 161.733C904.667 162.533 904.933 162.667 905.733 162.133C908.4 160.533 911.6 169.333 912.667 181.867C914.4 200.8 914.4 342.533 912.533 352.533C910.8 362.533 907.6 368.4 901.733 372C898.4 374 895.467 374.4 887.2 374.133C874.267 373.733 868.8 370.533 864.4 360.667L861.333 354V265.333C861.467 170.133 861.467 170.8 868.4 161.467C874.267 153.6 888.267 149.333 892.267 154.267Z" fill="#F32320"/>
<path d="M1066.13 106.8C1062.93 107.467 1059.73 107.6 1059.2 107.2C1058.53 106.8 1058 107.067 1058 107.733C1058 108.4 1056.13 109.333 1053.87 109.867C1049.07 110.8 1041.33 114.133 1036.4 117.6C1034.53 118.933 1032.4 120 1031.73 120C1031.2 120 1031.6 119.333 1032.67 118.533C1034.4 117.333 1034.4 117.2 1032.67 117.733C1031.6 118 1030.8 118.933 1030.93 119.6C1031.07 120.267 1028 124 1024 127.867C1012.8 138.933 1003.33 159.867 1003.33 174C1003.33 176.667 1002.8 178.533 1002.27 178.133C1001.73 177.867 1000.4 178.133 999.333 178.933C997.733 180 997.733 180.133 999.733 179.467C1001.87 178.8 1002 181.333 1002.13 218.4C1002.4 269.333 1002.13 276.267 1000.27 278.667C998.933 280.4 998.933 280.4 1000.8 278.933C1002.8 277.333 1002.93 279.333 1002.53 302.933C1002.13 317.067 1001.73 331.2 1001.47 334.267C1001.2 337.467 1001.6 340 1002.27 340C1003.07 340 1003.47 344.267 1003.2 350.533C1002.93 356.4 1003.07 360.4 1003.6 359.6C1004.27 358.533 1004.67 359.067 1004.67 360.8C1004.67 362.267 1005.87 367.067 1007.33 371.467C1008.8 375.733 1009.73 380.133 1009.33 381.2C1008.93 382.4 1008.93 382.8 1009.47 382.267C1010.67 381.067 1015.33 387.867 1015.2 390.667C1015.2 391.733 1014.4 390.8 1013.33 388.667C1012.27 386.4 1011.47 385.6 1011.47 386.8C1011.33 388 1012.53 390.4 1014.13 392.133C1015.6 393.867 1016.53 394.533 1016 393.6C1014.53 390.8 1015.73 391.733 1025.33 400.933C1030.53 405.867 1033.6 409.467 1032.4 408.933C1031.07 408.533 1030 408.667 1030 409.467C1030 410.133 1031.33 410.667 1033.07 410.4C1034.67 410.267 1039.6 411.867 1044 413.867C1052.53 417.867 1066.27 421.2 1074 421.333C1077.47 421.333 1078.13 421.733 1076.67 422.667C1075.07 423.733 1075.33 424 1077.73 424C1079.47 424 1080.4 423.467 1080 422.667C1079.47 421.867 1081.47 421.333 1085.2 421.333C1088.53 421.333 1095.2 420.4 1100.13 419.2C1105.07 418.133 1110 417.6 1111.2 418C1112.27 418.4 1112.8 418.4 1112.27 417.867C1111.73 417.333 1114.8 415.2 1119.07 413.067C1123.2 410.933 1128.27 407.6 1130.27 405.733C1132.4 403.733 1134.4 402.8 1135.47 403.333C1136.53 404 1136.8 403.867 1136.13 402.933C1135.6 402 1136.93 399.467 1139.2 397.067C1141.47 394.667 1143.33 392.133 1143.33 391.6C1143.33 390.933 1144.13 390.933 1145.07 391.467C1145.87 392 1146.27 392 1145.73 391.467C1145.33 390.933 1146.67 386.533 1148.93 381.867C1158 362.4 1157.87 364.133 1157.6 261.333C1157.33 169.733 1157.33 168.533 1154.4 160.133C1152.8 155.333 1151.87 150.933 1152.27 150.133C1152.67 149.333 1152.67 149.067 1152 149.6C1150.67 150.8 1145.87 141.333 1146.93 139.6C1147.33 138.8 1147.2 138.667 1146.4 139.067C1145.73 139.467 1143.87 138.267 1142.4 136.267C1138.8 131.2 1137.2 128 1140.27 131.867C1142.13 134.133 1142.93 134.4 1142.93 132.8C1142.93 130.933 1141.07 129.467 1139.2 129.867C1138.8 129.867 1135.87 127.733 1132.93 125.067C1125.6 118.4 1118.53 114.133 1110.4 111.2C1106.53 109.867 1103.73 108.4 1104 107.867C1104.4 107.467 1102.93 107.067 1100.93 107.067C1098.93 107.067 1091.6 106.8 1084.67 106.4C1077.73 106 1069.33 106.267 1066.13 106.8ZM1094.4 156.267C1098.93 158.533 1100 160 1099.47 163.067C1099.33 163.733 1099.87 163.867 1100.67 163.333C1102.67 162.133 1106.4 171.733 1105.73 176.133C1105.33 178.133 1105.6 179.6 1106.27 179.2C1106.8 178.8 1107.2 182.533 1107.2 187.6C1107.07 195.067 1106.8 195.867 1106 192L1105.07 187.333L1104.8 191.6C1104.8 193.867 1105.33 196.267 1106 196.667C1106.8 197.067 1107.33 201.2 1107.33 205.733C1107.33 211.6 1106.93 213.467 1106 212C1105.07 210.4 1104.67 210.933 1104.67 214C1104.67 217.067 1105.07 217.6 1106 216C1107.07 214.267 1107.33 214.4 1107.33 216.267C1107.33 217.6 1106.53 218.667 1105.73 218.8C1104.4 218.8 1104.4 219.067 1105.73 219.6C1107.07 220.133 1107.33 231.333 1107.33 273.467C1107.2 305.733 1106.67 326.4 1105.87 326C1105.2 325.467 1104.8 327.467 1104.8 330.267C1104.93 335.333 1104.93 335.333 1106 331.333C1106.8 328.4 1107.07 330.133 1107.2 337.6C1107.33 343.733 1106.8 348 1106 348C1105.33 348 1104.67 348.933 1104.67 350.133C1104.67 351.2 1105.33 351.733 1106 351.333C1106.8 350.933 1107.33 351.467 1107.33 352.667C1107.33 353.867 1106.8 354.533 1106.13 354.133C1105.6 353.733 1105.33 354.8 1105.6 356.533C1106.27 360.133 1102 367.333 1097.07 371.2C1092 374.933 1074 375.067 1066.67 371.333C1062.53 369.333 1061.33 367.867 1061.33 365.333C1061.33 363.333 1060.53 362 1059.33 362C1058.13 362 1057.33 360.8 1057.47 359.067C1057.47 357.467 1057.07 356.4 1056.53 356.8C1054.27 358.133 1053.87 336.267 1054.53 258C1055.07 187.067 1055.47 174.533 1057.33 169.333C1059.87 162.267 1063.33 158.267 1069.47 155.333C1074.67 152.933 1078.53 154 1074.67 156.933C1073.2 157.867 1072.8 158.667 1073.6 158.667C1075.33 158.667 1078.8 154.667 1077.2 154.667C1076.53 154.667 1076.93 154 1078 153.333C1080.53 151.733 1087.87 152.933 1094.4 156.267Z" fill="#F32320"/>
<path d="M474.533 108.933C475.2 110.133 474.4 110.667 471.733 110.8C469.733 110.933 467.6 110.933 467.066 110.8C466.533 110.8 466.4 111.467 466.8 112.533C467.2 113.467 466.266 120.267 464.8 127.467C463.466 134.667 460.933 148 459.2 156.933C457.466 166.4 455.6 172.8 454.933 172.4C454.133 171.867 454 172.267 454.666 173.2C455.866 175.333 452.533 194.8 451.066 193.867C450.533 193.467 450.4 194.133 450.8 195.2C452 198.4 445.6 229.867 444.4 227.067C443.733 225.467 443.6 226 444 228.4C444.933 232.933 436.666 278.8 435.2 277.867C434.666 277.6 433.733 278 433.2 278.8C432.666 279.867 432.8 280 433.733 279.467C435.866 278.133 435.733 281.6 433.333 292.8C432.266 297.867 429.333 313.333 426.666 327.333C415.6 386 413.733 395.467 413.066 397.333C412.666 398.4 412.266 401.067 412 403.333C411.866 405.467 411.333 409.333 410.8 411.6C409.866 415.467 410.133 416.133 413.333 417.333C415.2 418 419.066 418.267 421.866 417.867C424.8 417.333 428.266 417.733 429.866 418.533C431.866 419.6 432.666 419.6 432.666 418.667C432.666 417.733 436.133 417.333 442.666 417.6C448.133 417.733 452.666 418.533 452.666 419.2C452.666 420 453.333 419.867 454.266 418.933C455.2 418 457.2 417.333 458.8 417.333C461.2 417.333 461.866 416.133 463.066 409.6C463.866 405.467 464.933 398.8 465.466 395.067C466 391.2 466.8 388.267 467.333 388.667C467.866 388.933 468 387.867 467.733 386.267C467.466 384.667 468.4 376.8 469.733 368.667L472.266 354L476.8 353.333C479.333 352.933 490.8 352.933 502.4 353.333C514.666 353.733 523.333 353.467 523.333 352.8C523.333 352.133 523.6 351.867 524 352.267C524.4 352.667 527.066 367.067 530 384.4C532.8 401.733 535.466 416.4 535.866 417.067C536.4 418.133 585.733 418 586.8 416.933C587.2 416.533 583.066 391.467 577.466 362C564.4 292.4 563.2 284.533 564.533 282.4C565.466 280.933 565.466 279.867 564.666 279.333C563.866 278.8 563.333 278.933 563.466 279.6C563.6 280.133 563.6 281.2 563.333 282C562.8 284.8 539.2 153.6 538.933 146.4C538.8 142.133 538.266 138.667 537.733 138.667C537.333 138.667 535.866 133.067 534.666 126.267C533.466 119.333 532 113.067 531.466 112.133C530.666 110.933 523.466 110.533 504 110.667C484.666 110.667 477.066 110.267 475.6 109.067C473.866 107.733 473.733 107.733 474.533 108.933ZM505.333 222.267C507.2 235.6 508.4 248.133 508 250.267C507.466 252.933 507.6 253.333 508.4 251.467C509.066 249.867 510.933 258.267 513.733 277.333C516.133 292.933 517.733 306 517.333 306.533C516.4 307.333 481.066 307.467 480.133 306.533C479.866 306.267 480.8 299.333 482.133 291.333C483.6 283.2 485.6 270.667 486.666 263.333C490.933 234.8 495.866 208.133 496.666 208.667C497.2 208.933 498.8 208.4 500.133 207.333C502.533 205.6 502.533 205.467 499.733 206.267C497.2 206.8 496.666 206.4 496.666 203.6C496.666 201.733 497.2 199.867 497.866 199.333C498.666 198.933 498.933 197.333 498.666 195.867C498.4 194.4 498.533 192.133 499.066 190.933C500.133 187.867 501.066 192.267 505.333 222.267Z" fill="#F32320"/>
<path d="M275.333 110.4C260.8 111.067 262 108.8 262 135.333C262 148 262.533 158.8 263.067 159.2C263.733 159.6 274.4 160 286.933 160.133C299.467 160.267 310.4 160.8 311.333 161.333C313.6 162.667 313.867 226 311.6 228.267C309.467 230.4 309.6 232 311.733 232C312.933 232 313.333 237.6 313.067 256.267C312.933 269.733 312.8 280.933 312.667 281.333C312.533 281.867 312.8 306.533 313.067 320C313.067 321.867 312.667 324.8 312.133 326.533C311.467 328.4 311.6 329.333 312.267 328.933C312.933 328.533 313.333 334.4 313.067 343.067C312.8 351.333 312.8 358.933 312.8 360C312.933 361.067 313.067 374.133 313.2 388.933C313.333 403.733 313.733 416.267 314.267 416.8C315.467 418 361.333 417.867 363.333 416.667C364.133 416.133 364.667 410 364.667 401.333C364.667 388.933 365.067 386.533 367.067 385.333C369.2 383.867 369.2 383.867 367.067 384.533C364.8 385.2 364.667 381.6 364.533 322.267C364.533 287.6 364.533 258.4 364.533 257.333C364.4 256.267 364.4 237.6 364.533 216C364.533 194.4 364.4 175.467 364.4 174C364.267 172.533 364.267 168.667 364.4 165.467C364.667 159.867 364.8 159.6 366.667 162.133C368.4 164.267 368.533 164.267 367.867 162.267C367.067 160.133 368.667 160 389.867 160H412.667L412.8 154.933C412.933 152.267 412.8 147.733 412.667 144.8C412.533 140.933 412.8 140 414.267 140.8C415.733 141.6 415.733 141.467 414.267 139.733C413.2 138.4 412.667 133.733 412.8 126.533C412.933 120.4 412.933 114.267 412.8 113.067C412.667 110.933 408.267 110.667 347.733 110.4C311.867 110.133 279.333 110.133 275.333 110.4Z" fill="#F32320"/>
<path d="M617.6 111.467C617.067 112 616.667 120.8 616.667 130.933C616.667 141.2 616.133 149.2 615.6 148.8C615.067 148.533 614.533 149.733 614.4 151.733C614.133 154.933 614.267 154.933 615.333 152.667C616.133 150.933 616.533 154.933 616.533 164.133C616.667 173.6 616.133 178.667 615.067 179.867C613.733 181.333 613.733 181.6 615.067 180.8C616.267 180 616.667 183.2 616.667 194.533C616.667 203.467 616.133 209.333 615.333 209.333C614.667 209.333 614 210.533 614 212C614 213.467 614.667 214.667 615.333 214.667C617.2 214.667 617.067 220.933 615.2 221.6C614.133 222 614.133 222.933 615.467 225.067C616.933 227.467 616.933 228.533 615.6 230.667C614.8 232.133 614 233.733 614 234.267C614 234.933 614.667 234.4 615.333 233.333C616.133 232 616.667 246.267 616.667 274.933C616.667 304.8 616.267 318.667 615.2 318.667C614.533 318.667 614.267 319.333 614.667 320C615.2 320.8 616 321.067 616.667 320.667C617.2 320.267 617.467 323.733 617.067 328.267C616.667 332.933 615.733 336.933 614.933 337.2C614.267 337.467 614.533 338.133 615.467 338.8C616.8 339.6 616.933 340 615.733 340C614.8 340 614 340.667 614 341.467C614 342.133 614.667 342.4 615.333 342C616.133 341.6 616.667 342.133 616.667 343.333C616.667 344.533 616.133 345.067 615.333 344.667C614.667 344.267 614 344.533 614 345.2C614 346 614.667 346.667 615.333 346.667C616.133 346.667 616.667 347.6 616.667 348.667C616.667 349.733 616 350.667 615.2 350.667C614.133 350.667 614.133 351.2 615.067 352.267C615.733 353.2 616.533 361.2 616.667 370C616.8 378.8 616.933 392.667 617.067 400.933C617.2 409.067 617.733 416.267 618.267 416.8C618.933 417.333 629.733 417.733 642.267 417.733C657.733 417.733 665.6 418.133 666.267 419.2C666.933 420.133 667.333 420.133 667.333 419.2C667.333 418.4 674.667 417.733 688.4 417.6C709.867 417.333 720.533 416 730.133 412.667C733.2 411.6 736.267 411.067 737.2 411.6C738 412 738.267 411.867 737.733 411.333C737.067 410.667 739.467 408.533 743.067 406.533C746.533 404.533 751.333 400.8 753.867 398.267C756.667 395.333 759.2 393.867 760.533 394.267C762.4 394.8 762.4 394.667 760.667 393.467C758.8 392.133 759.733 391.333 762.4 391.867C763.067 392 763.2 391.467 762.667 390.667C762.267 390 763.333 386.8 765.2 383.733C773.333 369.6 777.467 346.4 776.133 322.667C775.2 304.8 772.8 294.4 767.6 284.8C763.067 276.133 749.467 262.667 742.133 259.333L736.533 256.8L740.8 254.533C752.667 248.533 762.8 233.067 766.8 215.2C769.867 200.933 768.933 169.333 764.933 158.267C763.333 154.133 762.4 150.667 762.8 150.667C763.2 150.667 762.8 149.867 762 148.933C758.4 144.8 752.133 133.867 752.4 132C752.533 130.533 752.4 130.4 751.867 131.733C751.2 133.067 749.467 132.133 745.467 128.267C739.067 122.133 732.8 118.667 720.667 114.4C712.4 111.467 709.867 111.333 665.333 110.933C639.6 110.667 618.133 110.933 617.6 111.467ZM689.467 158.4C689.2 158.933 691.2 159.333 694 159.333C700.533 159.333 708.133 165.2 712.4 173.6C716.4 181.333 717.867 200.267 715.333 210.8C713.867 216.667 713.333 217.467 712.4 215.333C711.733 213.467 711.6 214 712.133 216.933C712.8 220.533 712.133 221.867 708 226C702.4 231.333 701.333 231.6 699.333 228.267C698 226.267 698 226.4 698.667 228.8C699.6 232.533 698.133 233.067 682 234.133L668.667 235.067V196.133V157.333H679.467C685.333 157.333 689.867 157.733 689.467 158.4ZM702 282.8C707.733 284.267 719.733 294.267 718.8 296.8C718.4 297.867 718.667 298.667 719.2 298.667C721.2 298.667 723.2 306.133 724.133 316.667C724.8 324.8 724.667 326.667 723.2 326.667C721.6 326.667 721.6 326.933 723.067 327.867C725.467 329.333 723.067 346.4 719.2 354.133C716.133 360.533 711.333 365.6 711.2 362.533C711.2 361.467 710.667 362 710 363.733C708.4 367.6 700.267 371.067 693.867 370.4C691.2 370.133 689.2 370.4 689.467 370.933C689.867 371.6 685.867 372 680.8 372C672.667 372 671.333 371.6 671.2 369.6C671.2 367.733 670.933 367.733 670 370C669.333 371.6 668.8 353.867 668.8 327.2C668.667 302.267 668.933 281.467 669.467 281.067C670.533 280 696.533 281.333 702 282.8Z" fill="#F32320"/>
</svg>
