<svg width="58" height="51" viewBox="0 0 58 51" fill="none" xmlns="http://www.w3.org/2000/svg">
<path d="M54.542 0.805139C51.9736 -0.570695 49.1088 2.0827 47.4295 3.65508C43.577 7.38949 40.3171 11.7135 36.6619 15.6445C32.6118 19.9685 28.858 24.2926 24.709 28.5185C22.3382 30.8771 19.7698 33.4322 18.1892 36.3804C14.633 32.9407 11.5706 29.2063 7.61926 26.16C4.75451 23.9979 0.012842 22.4255 0.111627 27.6341C0.309196 34.4151 6.33506 41.6874 10.7804 46.3061C12.6573 48.2716 15.1269 50.3353 17.9916 50.4336C21.4491 50.6301 25.0054 46.5026 27.0798 44.2423C30.735 40.3114 33.6986 35.8889 37.0571 31.8598C41.4036 26.553 45.8489 21.3444 50.0967 15.9393C52.7639 12.598 61.1605 4.34284 54.542 0.805139ZM4.45799 27.241C4.35921 27.241 4.26042 27.241 4.06285 27.3391C3.66771 27.241 3.37136 27.1425 2.97622 26.946C3.27257 26.7494 3.7665 26.8477 4.45799 27.241Z" fill="url(#paint0_linear_695_40)"/>
<defs>
<linearGradient id="paint0_linear_695_40" x1="50.1285" y1="3.44037" x2="9.59635" y2="41.8165" gradientUnits="userSpaceOnUse">
<stop stop-color="#119000"/>
<stop offset="1" stop-color="#5FBD15"/>
</linearGradient>
</defs>
</svg>
