<svg width="96" height="27" viewBox="0 0 96 27" fill="none" xmlns="http://www.w3.org/2000/svg">
<path d="M37.754 10.2072C37.7791 8.78966 38.0973 7.43653 38.648 6.13423C39.0364 5.21582 39.5522 4.37103 40.1769 3.59862C40.9692 2.61898 41.8777 1.75678 42.9286 1.05403C43.3809 0.751531 43.8408 0.460103 44.3018 0.1708C44.4072 0.104655 44.5311 0.0680641 44.6876 0C44.6264 0.157529 44.592 0.288404 44.5284 0.403023C44.0617 1.24323 43.6813 2.11967 43.3854 3.0343C43.0683 4.01391 42.8494 5.00851 42.9076 6.04546C42.9211 6.28576 42.9799 6.52351 43.0166 6.75505C43.5909 6.54962 44.1299 6.32573 44.6873 6.16637C45.2217 6.01361 45.7719 5.90752 46.3212 5.81888C46.7834 5.7443 47.2545 5.68803 47.7214 5.68973C48.2473 5.69164 48.773 5.76743 49.2987 5.81131C50.0468 5.87375 50.7603 6.08465 51.4582 6.34353C52.3849 6.68727 53.2341 7.16979 54.0149 7.78306C54.9731 8.53569 55.6763 9.47772 56.1752 10.5769C56.4328 11.1444 56.6202 11.7375 56.6793 12.3644C56.7044 12.6298 56.7637 12.8948 56.7599 13.1593C56.7544 13.5419 56.7298 13.9277 56.6705 14.3054C56.5398 15.1386 56.2888 15.9396 55.839 16.6568C55.5311 17.1478 55.1782 17.6129 54.8203 18.0699C54.2974 18.7375 53.6303 19.2484 52.9235 19.7044C52.1629 20.1952 51.3503 20.5812 50.4727 20.8165C49.9697 20.9514 49.4648 21.0802 48.957 21.195C48.7264 21.247 48.4873 21.2752 48.251 21.2843C47.8038 21.3014 47.3558 21.3031 46.9082 21.2991C46.6472 21.2968 46.3862 21.2732 46.1254 21.2554C45.1228 21.1873 44.1635 20.9382 43.2366 20.5579C42.367 20.2011 41.5796 19.7145 40.859 19.1068C40.0623 18.435 39.421 17.6462 38.9662 16.7129C38.5864 15.9333 38.3347 15.1043 38.1591 14.2577C38.0137 13.5568 37.9138 12.8463 37.8038 12.1386C37.7706 11.9247 37.7711 11.7056 37.7558 11.4478C37.755 11.0069 37.7545 10.607 37.754 10.2072ZM48.2439 9.91754C47.858 9.92502 47.4722 9.93251 47.0539 9.9558C46.5632 10.099 46.0616 10.2133 45.5844 10.3925C44.9156 10.6438 44.3834 11.0977 43.9611 11.6697C43.4599 12.3486 43.199 13.0978 43.2964 13.9607C43.3827 14.7252 43.7126 15.3734 44.2605 15.8783C44.6235 16.2128 45.0686 16.4783 45.515 16.6971C46.0559 16.9621 46.655 17.1042 47.2582 17.1077C47.6981 17.1103 48.1449 17.0302 48.5775 16.9358C49.3785 16.7608 50.0855 16.3751 50.6634 15.7982C51.2139 15.2486 51.6143 14.6101 51.7165 13.8016C51.7995 13.1454 51.6863 12.5351 51.3902 11.9681C50.9282 11.0832 50.1542 10.5472 49.2357 10.2119C48.923 10.0978 48.5936 10.0296 48.2439 9.91754Z" fill="url(#paint0_linear_664_144)"/>
<path d="M39.2979 22.0972C39.1756 22.0951 39.0532 22.0911 38.9308 22.0913C37.5175 22.0933 36.1802 21.7787 34.9417 21.0948C34.5297 20.8674 34.1513 20.5792 33.7497 20.3136C33 21.0312 32.1651 21.6789 31.2056 22.1485C30.3158 22.584 29.3879 22.9142 28.403 23.0584C27.9262 23.1282 27.4477 23.194 26.9675 23.2319C25.3227 23.3615 23.7447 23.0565 22.235 22.4188C21.4602 22.0916 20.7433 21.6507 20.101 21.0957C19.4612 20.5428 18.8787 19.9421 18.443 19.2121C17.9991 18.4682 17.6816 17.6756 17.5607 16.8133C17.5067 16.4285 17.4247 16.0398 17.4361 15.6553C17.4594 14.8728 17.5726 14.1015 17.8548 13.3588C18.1609 12.5531 18.5842 11.8149 19.1198 11.1487C19.7449 10.371 20.4914 9.71962 21.3481 9.19852C22.1657 8.70122 23.0281 8.30122 23.953 8.05988C24.5398 7.90678 25.1406 7.79755 25.7412 7.71088C26.1991 7.6448 26.6677 7.60811 27.1295 7.62243C28.837 7.6754 30.4698 8.02884 31.9723 8.88585C32.8437 9.38286 33.6112 10.0086 34.2662 10.7589C35.0829 11.6947 35.5868 12.7983 35.8135 14.0176C35.9199 14.5896 35.9467 15.176 36.0441 15.7501C36.1793 16.5468 36.3958 17.3239 36.7104 18.0708C36.9842 18.7206 37.3189 19.3379 37.7585 19.8899C38.4232 20.7244 39.1873 21.4405 40.2012 21.8428C40.302 21.8828 40.3893 21.9569 40.4598 22.0314C40.153 22.0477 39.8694 22.0437 39.5859 22.0501C39.4896 22.0523 39.3939 22.0807 39.2979 22.0972ZM26.2523 11.9186C25.9843 11.9656 25.7105 11.9918 25.4493 12.0638C24.8278 12.2351 24.2705 12.5325 23.772 12.9475C22.8354 13.7272 22.3423 14.6863 22.4818 15.9329C22.5611 16.6411 22.8617 17.2349 23.3491 17.7369C23.7854 18.1863 24.3104 18.5257 24.8946 18.733C25.4509 18.9304 26.0284 19.0971 26.6345 19.0532C26.7966 19.0414 26.957 19 27.1172 18.9675C27.4596 18.8981 27.8087 18.85 28.1418 18.7494C29.0195 18.4846 29.7279 17.9596 30.2696 17.229C31.0043 16.2381 31.1497 15.1557 30.6209 14.0296C30.1576 13.0431 29.3342 12.4511 28.3228 12.108C28.0278 12.0079 27.7176 11.9524 27.3862 11.8535C27.1182 11.8489 26.8501 11.8395 26.5821 11.8423C26.4787 11.8434 26.3756 11.8723 26.2523 11.9186Z" fill="url(#paint1_linear_664_144)"/>
<path d="M14.3038 25.6112C13.301 25.2228 12.4258 24.6655 11.6941 23.8996C10.774 22.9365 10.1452 21.7986 9.82911 20.51C9.67417 19.8784 9.63131 19.2184 9.55219 18.5694C9.4693 17.8896 9.39936 17.2081 9.33228 16.5265C9.29329 16.1303 9.27624 15.732 9.24005 15.3355C9.18692 14.7535 9.12347 14.1724 9.06835 13.5906C9.03424 13.2305 9.01181 12.8693 8.97633 12.5094C8.92257 11.964 8.8611 11.4194 8.80486 10.8743C8.78629 10.6944 8.77288 10.5138 8.75865 10.3335C8.72734 9.93641 8.69701 9.53926 8.6629 9.09842C8.28789 9.12199 7.91406 9.14157 7.54095 9.17046C7.33291 9.18657 7.12623 9.21959 6.91866 9.24247C6.24518 9.31671 5.57227 9.39713 4.89784 9.46159C3.85085 9.56167 2.85183 9.83659 1.93859 10.3532C1.46088 10.6234 1.03138 10.9822 0.594384 11.3195C0.405707 11.4651 0.253163 11.6575 0.0394633 11.874C-0.00801226 11.2647 -0.0170602 10.7158 0.0367701 10.1603C0.0897976 9.61305 0.205662 9.08536 0.397577 8.57341C0.827934 7.42542 1.57405 6.5383 2.62291 5.90516C3.43471 5.41512 4.31327 5.09704 5.24481 4.94084C5.71357 4.86224 6.19294 4.84806 6.66691 4.79896C7.19032 4.74475 7.71273 4.68096 8.23617 4.627C8.58139 4.59142 8.92776 4.56707 9.27341 4.53549C9.89919 4.47833 10.5246 4.41754 11.1506 4.36212C11.5327 4.32828 11.916 4.30745 12.2978 4.27039C12.8361 4.21814 13.373 4.15291 13.9112 4.09968C14.2784 4.06335 14.6464 4.03123 15.0148 4.00897C16.4776 3.92055 17.9084 3.68959 19.2554 3.07632C20.0716 2.70474 20.8361 2.25535 21.4762 1.61491C21.5512 1.53977 21.654 1.49229 21.7735 1.41214C21.7942 2.52197 21.8391 3.57282 21.478 4.59205C21.0414 5.82446 20.2669 6.76779 19.148 7.44114C18.4073 7.88691 17.5979 8.1388 16.7621 8.31171C16.4387 8.37862 16.1013 8.37766 15.7703 8.40784C15.2883 8.45179 14.8061 8.494 14.3244 8.54158C14.2221 8.55169 14.155 8.60039 14.1682 8.7265C14.2154 9.17894 14.2561 9.63207 14.2983 10.085C14.3292 10.416 14.3569 10.7473 14.3892 11.0782C14.4459 11.66 14.5079 12.2412 14.562 12.8233C14.5975 13.2052 14.6186 13.5886 14.654 13.9705C14.708 14.5526 14.7704 15.1338 14.8262 15.7156C14.8594 16.0611 14.8838 16.4074 14.9176 16.7528C14.973 17.3201 15.0357 17.8867 15.09 18.4541C15.1252 18.8214 15.1315 19.1925 15.1851 19.5568C15.2716 20.1443 15.3574 20.7346 15.4957 21.3113C15.7325 22.2992 16.2002 23.1841 16.8306 23.9774C17.3488 24.6295 17.9839 25.1574 18.6842 25.6044C18.9189 25.7541 19.1722 25.8746 19.416 26.0101C19.4757 26.0433 19.5317 26.0832 19.5802 26.1556C17.7838 26.3701 16.0256 26.2595 14.3038 25.6112Z" fill="url(#paint2_linear_664_144)"/>
<path d="M68.2558 3.91733C69.3526 3.94494 70.3967 4.20887 71.4071 4.622C72.6897 5.14638 73.8091 5.91174 74.727 6.94864C75.3943 7.70256 75.8707 8.56966 76.1356 9.55185C76.2788 10.0828 76.3659 10.6139 76.4004 11.1639C76.4672 12.2285 76.2474 13.2264 75.8279 14.1959C75.4815 14.9967 75.002 15.7025 74.4192 16.3498C73.7648 17.0765 72.9946 17.6448 72.1557 18.1354C71.3588 18.6015 70.5111 18.9392 69.6185 19.1564C69.1465 19.2713 68.6626 19.3534 68.1792 19.4011C67.5871 19.4596 66.9896 19.496 66.3951 19.4886C65.5881 19.4786 64.7895 19.3531 64.0194 19.1091C63.4694 18.9348 62.9187 18.7439 62.3999 18.4947C61.6614 18.1398 60.9884 17.6774 60.3623 17.1379C59.1849 16.1232 58.4701 14.8443 58.1004 13.3555C58.0419 13.1198 58.0311 12.8723 57.998 12.5901C57.9973 12.1064 57.9968 11.6627 57.9963 11.219C58.004 10.5914 58.1987 10.0034 58.419 9.43007C58.7348 8.60828 59.1979 7.86249 59.7706 7.19595C60.3373 6.53645 60.9919 5.96784 61.733 5.50635C62.8665 4.80054 64.0893 4.31238 65.3998 4.0617C65.8442 3.97668 66.3027 3.96476 66.7957 3.91917C67.3097 3.91837 67.7827 3.91785 68.2558 3.91733ZM64.76 8.80497C64.3645 9.07673 63.9989 9.37855 63.7017 9.76214C63.1929 10.4187 62.9105 11.1376 62.9652 11.9858C63.0308 13.0026 63.5224 13.7839 64.3059 14.369C65.3855 15.1752 66.6249 15.4041 67.9429 15.1782C68.9415 15.0071 69.8073 14.567 70.4904 13.8025C71.1568 13.0568 71.5329 12.2226 71.3838 11.185C71.2554 10.2915 70.8346 9.57543 70.134 9.04964C69.1781 8.33231 68.0997 7.99015 66.881 8.13663C66.137 8.22605 65.435 8.40945 64.76 8.80497Z" fill="url(#paint3_linear_664_144)"/>
<path d="M77.6223 9.37116C77.6418 8.72332 77.8351 8.11445 78.0729 7.52285C78.3657 6.79435 78.7708 6.12403 79.2681 5.51655C79.8733 4.77738 80.5934 4.16312 81.4044 3.65895C82.4641 3.00017 83.6019 2.54469 84.8274 2.28354C85.8843 2.05834 86.9507 2.02216 88.0141 2.08521C89.1326 2.15154 90.2111 2.44009 91.2462 2.89525C92.0349 3.24204 92.7594 3.68329 93.4269 4.21816C94.0584 4.72418 94.5746 5.34135 95.0002 6.02696C95.4715 6.78606 95.8315 7.60479 95.9553 8.48952C96.035 9.05861 95.9868 9.64774 95.972 10.2273C95.9572 10.8045 95.8182 11.3604 95.6307 11.9063C95.3527 12.7157 94.9231 13.4342 94.3959 14.1056C93.7346 14.9479 92.9362 15.6329 92.0286 16.184C91.0442 16.7818 89.9759 17.194 88.846 17.4205C88.2975 17.5305 87.7375 17.6013 87.1792 17.64C86.6524 17.6766 86.1156 17.6953 85.5928 17.6361C84.9116 17.559 84.2315 17.431 83.5661 17.2643C82.5496 17.0096 81.6238 16.5402 80.7683 15.9352C79.4436 14.9984 78.4351 13.8115 77.9308 12.2497C77.7825 11.7904 77.7241 11.3021 77.6242 10.7869C77.6234 10.2881 77.6228 9.82963 77.6223 9.37116ZM89.3515 6.95415C89.2281 6.8814 89.1088 6.80008 88.9805 6.73724C87.9155 6.21551 86.8052 6.17698 85.6734 6.45315C84.7867 6.66952 84.0296 7.10527 83.432 7.81041C82.7608 8.60235 82.4345 9.48451 82.6374 10.5312C82.8695 11.729 83.6344 12.4768 84.6836 12.9914C85.1456 13.218 85.6348 13.3318 86.1464 13.388C86.7215 13.4511 87.2871 13.442 87.8493 13.3052C88.9171 13.0454 89.7853 12.4775 90.4334 11.5911C90.959 10.8723 91.1537 10.0587 90.9899 9.18433C90.8055 8.19992 90.2168 7.49071 89.3515 6.95415Z" fill="url(#paint4_linear_664_144)"/>
<defs>
<linearGradient id="paint0_linear_664_144" x1="42.9014" y1="3.24522" x2="55.2162" y2="4.13369" gradientUnits="userSpaceOnUse">
<stop stop-color="#FF7376"/>
<stop offset="1" stop-color="#EA5A62"/>
</linearGradient>
<linearGradient id="paint1_linear_664_144" x1="23.6709" y1="10.0024" x2="38.4577" y2="11.7624" gradientUnits="userSpaceOnUse">
<stop stop-color="#FF7376"/>
<stop offset="1" stop-color="#EA5A62"/>
</linearGradient>
<linearGradient id="paint2_linear_664_144" x1="5.90068" y1="5.197" x2="20.0199" y2="6.19823" gradientUnits="userSpaceOnUse">
<stop stop-color="#FF7376"/>
<stop offset="1" stop-color="#EA5A62"/>
</linearGradient>
<linearGradient id="paint3_linear_664_144" x1="62.9839" y1="6.28977" x2="74.8698" y2="7.42635" gradientUnits="userSpaceOnUse">
<stop stop-color="#FF7376"/>
<stop offset="1" stop-color="#EA5A62"/>
</linearGradient>
<linearGradient id="paint4_linear_664_144" x1="82.5996" y1="4.43676" x2="94.4618" y2="5.56551" gradientUnits="userSpaceOnUse">
<stop stop-color="#FF7376"/>
<stop offset="1" stop-color="#EA5A62"/>
</linearGradient>
</defs>
</svg>
